<?xml version="1.0" encoding="utf-8"?>
<!-- Svg Vector Icons : http://www.onlinewebfonts.com/icon -->
<!DOCTYPE svg PUBLIC "-//W3C//DTD SVG 1.1//EN" "http://www.w3.org/Graphics/SVG/1.1/DTD/svg11.dtd">
<svg version="1.1" xmlns="http://www.w3.org/2000/svg" xmlns:xlink="http://www.w3.org/1999/xlink" x="0px" y="0px" viewBox="0 0 1000 1000" enable-background="new 0 0 1000 1000" xml:space="preserve">
<metadata> Svg Vector Icons : http://www.onlinewebfonts.com/icon </metadata>
<g><path d="M142,457.4V338.1h477.3c11.3-7.8,19.9-39.8,31.8-72.6c0-46-17.1-63.2-51.4-91.5c-34.3-28.2-59.2-42.4-114.4-42.4c-49.3,0-96.3,10.2-141,30.5c-44.7,20.3-114.3,69.2-142.6,96.3v-179c38.6-18.7,104.2-44.1,149.1-54.3C395.8,15.1,443.6,10,494.2,10c88.7,0,161.5,26.1,218.6,78.3c57,52.2,85.5,116.8,85.5,193.8c0,37.4,6.4,28.8-9.9,56.1H858v119.3h-169c-23.3,13.8-58.4,38.3-89.7,52.1C558.8,528,528.8,523.6,500,537l358,0v119.3H370.7c-16.3,19.5-26.3,39.4-26.3,79.7c0,47.6,7.3,55,41.7,81.9c34.4,26.9,65.5,50.3,132.9,50.3c46.9,0,95.8-11.1,146.7-33.3c50.8-22.2,92.5-48.8,132.5-89.2v169c-41.1,20.5-72.3,40-118.9,54.1C632.7,983,576.2,990,509.9,990c-55.8,0-102.3-7.3-139.5-21.9c-37.2-14.6-70.5-35.3-99.9-62.2c-26.4-24.5-46.8-52.4-61.4-83.6c-14.5-31.2-21.8-64.9-21.8-101.1c0-27.4,6.8-42.4,14.3-64.8H142V537l139.2,0c35.4-27.6,72.4-47.7,149.1-79.5H142z"/></g>
</svg>